<mxfile host="app.diagrams.net" modified="2021-07-05T10:10:48.636Z" agent="5.0 (Macintosh; Intel Mac OS X 10_15_7) AppleWebKit/537.36 (KHTML, like Gecko) Chrome/91.0.4472.114 Safari/537.36" etag="aPQj4Vv6hLgwBBK3kaGi" version="14.8.3" type="github">
  <diagram id="mPdl5edqqd5qtUg2jnDU" name="Page-1">
    <mxGraphModel dx="744" dy="743" grid="1" gridSize="10" guides="1" tooltips="1" connect="1" arrows="1" fold="1" page="1" pageScale="1" pageWidth="850" pageHeight="1100" math="0" shadow="0">
      <root>
        <mxCell id="0" />
        <mxCell id="1" parent="0" />
        <mxCell id="N7axorFDRqFZZxfYtYhN-1" value="" style="rounded=0;html=1;jettySize=auto;orthogonalLoop=1;fontSize=11;endArrow=block;endFill=0;endSize=8;strokeWidth=1;shadow=0;labelBackgroundColor=none;edgeStyle=orthogonalEdgeStyle;" edge="1" parent="1" source="N7axorFDRqFZZxfYtYhN-3" target="N7axorFDRqFZZxfYtYhN-6">
          <mxGeometry relative="1" as="geometry" />
        </mxCell>
        <mxCell id="N7axorFDRqFZZxfYtYhN-2" value="" style="edgeStyle=orthogonalEdgeStyle;rounded=0;orthogonalLoop=1;jettySize=auto;html=1;" edge="1" parent="1" source="N7axorFDRqFZZxfYtYhN-3" target="N7axorFDRqFZZxfYtYhN-14">
          <mxGeometry relative="1" as="geometry" />
        </mxCell>
        <mxCell id="N7axorFDRqFZZxfYtYhN-3" value="Input Dataset" style="rounded=1;whiteSpace=wrap;html=1;fontSize=12;glass=0;strokeWidth=1;shadow=0;fillColor=#dae8fc;strokeColor=#6c8ebf;" vertex="1" parent="1">
          <mxGeometry x="160" y="80" width="120" height="40" as="geometry" />
        </mxCell>
        <mxCell id="N7axorFDRqFZZxfYtYhN-4" value="Yes" style="rounded=0;html=1;jettySize=auto;orthogonalLoop=1;fontSize=11;endArrow=block;endFill=0;endSize=8;strokeWidth=1;shadow=0;labelBackgroundColor=none;edgeStyle=orthogonalEdgeStyle;entryX=0.5;entryY=0;entryDx=0;entryDy=0;" edge="1" parent="1" source="N7axorFDRqFZZxfYtYhN-6" target="N7axorFDRqFZZxfYtYhN-11">
          <mxGeometry y="20" relative="1" as="geometry">
            <mxPoint as="offset" />
            <mxPoint x="220" y="290" as="targetPoint" />
          </mxGeometry>
        </mxCell>
        <mxCell id="N7axorFDRqFZZxfYtYhN-5" value="Ok" style="edgeStyle=orthogonalEdgeStyle;rounded=0;html=1;jettySize=auto;orthogonalLoop=1;fontSize=11;endArrow=block;endFill=0;endSize=8;strokeWidth=1;shadow=0;labelBackgroundColor=none;" edge="1" parent="1" source="N7axorFDRqFZZxfYtYhN-6" target="N7axorFDRqFZZxfYtYhN-7">
          <mxGeometry y="10" relative="1" as="geometry">
            <mxPoint as="offset" />
          </mxGeometry>
        </mxCell>
        <mxCell id="N7axorFDRqFZZxfYtYhN-6" value="Merged&lt;br&gt;Dataset" style="rhombus;whiteSpace=wrap;html=1;shadow=0;fontFamily=Helvetica;fontSize=12;align=center;strokeWidth=1;spacing=6;spacingTop=-4;fillColor=#d5e8d4;strokeColor=#82b366;" vertex="1" parent="1">
          <mxGeometry x="170" y="170" width="100" height="80" as="geometry" />
        </mxCell>
        <mxCell id="N7axorFDRqFZZxfYtYhN-7" value="Download as CSV" style="rounded=1;whiteSpace=wrap;html=1;fontSize=12;glass=0;strokeWidth=1;shadow=0;fillColor=#fff2cc;strokeColor=#d6b656;" vertex="1" parent="1">
          <mxGeometry x="320" y="190" width="120" height="40" as="geometry" />
        </mxCell>
        <mxCell id="N7axorFDRqFZZxfYtYhN-11" value="Hierarchical Model:&lt;br&gt;Unemployment Rate Forecasting&lt;br&gt;on Kreis-level" style="rounded=1;whiteSpace=wrap;html=1;fontSize=12;glass=0;strokeWidth=1;shadow=0;fillColor=#dae8fc;strokeColor=#6c8ebf;" vertex="1" parent="1">
          <mxGeometry x="125" y="300" width="190" height="60" as="geometry" />
        </mxCell>
        <mxCell id="N7axorFDRqFZZxfYtYhN-14" value="formats of the dataset&lt;br&gt;1. non-time-series: (rows = 401 kreis) * (columns = [ags5] + # features)&lt;br&gt;2. time-series: (1) long format, (2) wide format&amp;nbsp;&lt;br&gt;&amp;nbsp;" style="shape=document;whiteSpace=wrap;html=1;boundedLbl=1;rounded=1;shadow=0;strokeWidth=1;glass=0;size=0.125;fillColor=#f5f5f5;strokeColor=#666666;fontColor=#333333;" vertex="1" parent="1">
          <mxGeometry x="320" y="60" width="430" height="80" as="geometry" />
        </mxCell>
      </root>
    </mxGraphModel>
  </diagram>
</mxfile>
